<svg id="codeer" xmlns="http://www.w3.org/2000/svg" width="155.958" height="155.406" viewBox="0 0 155.958 155.406">
  <defs>
    <style>
      .cls-1 {
        fill: #fff;
      }
    </style>
  </defs>
  <g id="Group_33" data-name="Group 33">
    <path id="Path_61" data-name="Path 61" class="cls-1" d="M55.546,64.092A17.546,17.546,0,1,0,38,46.546,17.565,17.565,0,0,0,55.546,64.092Zm0-30.079A12.533,12.533,0,1,1,43.013,46.546,12.547,12.547,0,0,1,55.546,34.013Z" transform="translate(54.742 41.183)"/>
    <path id="Path_62" data-name="Path 62" class="cls-1" d="M49.52,48.039A7.52,7.52,0,1,0,42,40.52,7.529,7.529,0,0,0,49.52,48.039Zm0-10.026a2.507,2.507,0,1,1-2.507,2.507A2.511,2.511,0,0,1,49.52,38.013Z" transform="translate(60.769 47.21)"/>
    <path id="Path_63" data-name="Path 63" class="cls-1" d="M126.621,129.085l1.722-2.757h28.615l-3.281-16.4-15.1-12.585c.17-1.87.288-3.745.288-5.632,0-.16-.015-.316-.018-.476h.018V8.52A7.529,7.529,0,0,0,131.341,1H8.52A7.529,7.529,0,0,0,1,8.52V113.795a7.529,7.529,0,0,0,7.52,7.52h58.1l-1,5.013H94.234l1.722,2.757-.973,2.434a15.059,15.059,0,0,0,4.938,17.616l4.745,3.559,4.8-9.6a15.533,15.533,0,0,1,4.329,10.8v2.507h6.216l4.171-5.214a20.7,20.7,0,0,0,3.05-20.581Zm-26.477-2.757-2.75-4.4a56.831,56.831,0,0,1-3.055-5.627h33.9a57.11,57.11,0,0,1-3.055,5.627l-2.747,4.4ZM94.805,66.17h32.966a56.845,56.845,0,0,1,2.609,45.118H92.2A56.845,56.845,0,0,1,94.805,66.17Zm2.84-5.013c.226-.353.426-.722.659-1.073l7.274-10.914a6.862,6.862,0,0,1,11.417,0l7.274,10.914c.233.351.434.717.659,1.073H97.645Zm51.465,51.49,1.732,8.668H131.321a61.915,61.915,0,0,0,6.437-18.127ZM8.52,6.013H131.341a2.511,2.511,0,0,1,2.507,2.507V31.079H6.013V8.52A2.511,2.511,0,0,1,8.52,6.013ZM67.624,116.3H8.52a2.511,2.511,0,0,1-2.507-2.507v-77.7H133.847V67.371a62.164,62.164,0,0,0-5.4-10.069l-7.274-10.914a11.877,11.877,0,0,0-19.759,0L94.136,57.3a61.817,61.817,0,0,0-10.42,34.407c0,1.887.118,3.762.288,5.63L68.9,109.927Zm5.843-3.655,11.352-9.46a61.915,61.915,0,0,0,6.437,18.127H71.735Zm46.8,35.415-1.775,2.216a20.5,20.5,0,0,0-5.738-10.989l-4.66-4.66-5.224,10.45a10.043,10.043,0,0,1-3.233-11.7l.812-2.038h21.672l.454,1.135A15.68,15.68,0,0,1,120.269,148.062Z" transform="translate(-1 -1)"/>
    <path id="Path_64" data-name="Path 64" class="cls-1" d="M20.039,5H5V20.039H20.039ZM15.026,15.026H10.013V10.013h5.013Z" transform="translate(5.026 5.026)"/>
    <path id="Path_65" data-name="Path 65" class="cls-1" d="M28.039,5H13V20.039H28.039ZM23.026,15.026H18.013V10.013h5.013Z" transform="translate(17.079 5.026)"/>
    <path id="Path_66" data-name="Path 66" class="cls-1" d="M36.039,5H21V20.039H36.039ZM31.026,15.026H26.013V10.013h5.013Z" transform="translate(29.131 5.026)"/>
    <path id="Path_67" data-name="Path 67" class="cls-1" d="M65.157,17H50.118V67.131H45.1V37.052H30.066V67.131H25.052V47.079H10.013V67.131H5v5.013H70.17V67.131H65.157ZM55.131,22.013h5.013V67.131H55.131ZM35.079,42.066h5.013V67.131H35.079ZM15.026,52.092h5.013V67.131H15.026Z" transform="translate(5.026 23.105)"/>
    <rect id="Rectangle_17" data-name="Rectangle 17" class="cls-1" width="5.127" height="5.127" transform="translate(9.482 40.533)"/>
    <rect id="Rectangle_18" data-name="Rectangle 18" class="cls-1" width="25.636" height="5.127" transform="translate(19.737 40.533)"/>
    <rect id="Rectangle_19" data-name="Rectangle 19" class="cls-1" width="5.127" height="5.127" transform="translate(9.482 50.787)"/>
    <rect id="Rectangle_20" data-name="Rectangle 20" class="cls-1" width="25.636" height="5.127" transform="translate(19.737 50.787)"/>
  </g>
</svg>
