<svg id="leer" xmlns="http://www.w3.org/2000/svg" width="155.327" height="155.327" viewBox="0 0 155.327 155.327">
  <defs>
    <style>
      .cls-1 {
        fill: #cc0085;
      }
    </style>
  </defs>
  <g id="Group_32" data-name="Group 32">
    <path id="Path_56" data-name="Path 56" class="cls-1" d="M49.215,30.386a5.343,5.343,0,0,0,10.6,0l2.157-17.261A7.212,7.212,0,0,0,54.809,5h-.586A7.23,7.23,0,0,0,47,12.223a7.553,7.553,0,0,0,.055.894Zm5.008-20.375h.586a2.214,2.214,0,0,1,2.212,2.212A2.025,2.025,0,0,1,57,12.5L54.847,29.76a.344.344,0,0,1-.661,0L52.028,12.493a1.961,1.961,0,0,1-.018-.271A2.214,2.214,0,0,1,54.223,10.011Z" transform="translate(68.243 5.021)"/>
    <path id="Path_57" data-name="Path 57" class="cls-1" d="M54.516,34.032A7.516,7.516,0,1,0,47,26.516,7.525,7.525,0,0,0,54.516,34.032Zm0-10.021a2.505,2.505,0,1,1-2.505,2.505A2.508,2.508,0,0,1,54.516,24.011Z" transform="translate(68.243 26.095)"/>
    <path id="Path_58" data-name="Path 58" class="cls-1" d="M80.435,86.919l.734-.734V69.159l5.424-2.711L86.1,64.5c-1.856-7.436-6.221-16.059-8.656-20.538-.048-.088-.123-.15-.173-.235A15.049,15.049,0,0,0,71.012,15h-17.4A37.622,37.622,0,0,0,16.032,52.579v28.5a13.51,13.51,0,0,1-1.643,6.446L3.255,107.933a18.475,18.475,0,0,0,16.222,27.32h66.7V129.1A33.564,33.564,0,0,0,66.137,98.493V92.381C75.958,91.263,80.232,87.122,80.435,86.919ZM19.476,130.243A13.465,13.465,0,0,1,7.654,110.331L18.787,89.92a18.527,18.527,0,0,0,2.255-8.844v-28.5A32.606,32.606,0,0,1,53.611,20.011h17.4A10.061,10.061,0,0,1,81.031,30.167a9.894,9.894,0,0,1-9.883,9.886,5.011,5.011,0,1,1,0-10.021h5.011V25.021H71.148A10.031,10.031,0,0,0,61.127,35.042a9.918,9.918,0,0,0,1.393,5.011H49.244A10.676,10.676,0,0,0,38.579,50.718V57.59H36.718A10.665,10.665,0,0,0,30.8,77.128L38.569,82.3a5.645,5.645,0,0,1,2.515,4.7V97.927A12.548,12.548,0,0,0,31.063,110.2v20.042Zm31.629,0H36.074V110.2a7.516,7.516,0,0,1,15.032,0ZM81.169,129.1v1.142H56.116V110.2a12.535,12.535,0,0,0-.291-2.638,12.4,12.4,0,0,0,7.5-3.537l.884-.884A28.51,28.51,0,0,1,81.169,129.1ZM61.127,99.142l-1.34,1.34a7.47,7.47,0,0,1-5.316,2.2h-.859c-.023,0-.045-.005-.068-.005a12.5,12.5,0,0,0-7.448-4.753V87.009a10.635,10.635,0,0,0-4.75-8.874L33.579,72.96A5.656,5.656,0,0,1,36.718,62.6H43.59V50.718a5.661,5.661,0,0,1,5.654-5.654H70.855a2.482,2.482,0,0,1,2.19,1.29,101.064,101.064,0,0,1,7.669,17.432l-4.555,2.277v9.064h-.431A14.7,14.7,0,0,1,65.4,70.85l-3.542,3.542a19.75,19.75,0,0,0,13.867,5.745h.431v3.8c-1.711,1.172-6.414,3.718-15.032,3.718H56.116v5.011h5.011Z" transform="translate(-1 20.074)"/>
    <path id="Path_59" data-name="Path 59" class="cls-1" d="M30.571,38.516A7.525,7.525,0,0,0,38.087,31H33.076a2.505,2.505,0,0,1-5.011,0H23.055A7.523,7.523,0,0,0,30.571,38.516Z" transform="translate(32.199 44.158)"/>
    <path id="Path_60" data-name="Path 60" class="cls-1" d="M94.621,101.211H74.579a2.506,2.506,0,0,1-2.505-2.505V96.2h2.505A12.541,12.541,0,0,0,87.106,83.674V80.708a7.476,7.476,0,0,0,.14-14.065,15.491,15.491,0,0,1,4.439-9.059l.912-.912a32.57,32.57,0,1,0-46.057,0l.912.912a15.52,15.52,0,0,1,4.439,9.059,7.478,7.478,0,0,0,.14,14.067v2.966A12.541,12.541,0,0,0,64.558,96.2h2.505v2.505a7.525,7.525,0,0,0,7.516,7.516H94.621a2.505,2.505,0,1,1,0,5.011H59.547a7.516,7.516,0,0,0,0,15.032H89.611a2.506,2.506,0,0,1,2.505,2.505V138.79a2.506,2.506,0,0,1-2.505,2.505H76.831a12.548,12.548,0,0,0-12.273-10.021H47.021v5.011H37V141.3H47.021v5.011H37v5.011H47.021v5.011H64.558a12.55,12.55,0,0,0,12.273-10.021H89.611a7.525,7.525,0,0,0,7.516-7.516V128.769a7.525,7.525,0,0,0-7.516-7.516H59.547a2.505,2.505,0,1,1,0-5.011H94.621a7.516,7.516,0,0,0,0-15.032ZM84.6,76.158H54.537a2.505,2.505,0,1,1,0-5.011H84.6a2.505,2.505,0,0,1,0,5.011ZM50.083,53.13a27.559,27.559,0,1,1,38.972,0l-.912.912a20.47,20.47,0,0,0-5.88,12.1H56.874a20.47,20.47,0,0,0-5.88-12.1Zm6.96,30.544V81.169H82.1v2.505a7.525,7.525,0,0,1-7.516,7.516H64.558A7.525,7.525,0,0,1,57.042,83.674Zm7.516,67.642H52.032V136.285H64.558a7.516,7.516,0,0,1,0,15.032Z" transform="translate(53.19 -1)"/>
  </g>
</svg>
