<svg id="speel" xmlns="http://www.w3.org/2000/svg" width="156" height="156" viewBox="0 0 156 156">
  <defs>
    <style>
      .cls-1 {
        fill: #cc0085;
      }
    </style>
  </defs>
  <g id="Group_31" data-name="Group 31" transform="translate(0)">
    <path id="Path_48" data-name="Path 48" class="cls-1" d="M47.052,49H32.013A5.018,5.018,0,0,0,27,54.013v5.013a5.018,5.018,0,0,0,5.013,5.013H47.052a5.018,5.018,0,0,0,5.013-5.013V54.013A5.018,5.018,0,0,0,47.052,49ZM32.013,59.026V54.013H47.052l0,5.013Z" transform="translate(38.17 71.314)"/>
    <path id="Path_49" data-name="Path 49" class="cls-1" d="M27.026,49H22.013A5.018,5.018,0,0,0,17,54.013v5.013a5.018,5.018,0,0,0,5.013,5.013h5.013a5.018,5.018,0,0,0,5.013-5.013V54.013A5.018,5.018,0,0,0,27.026,49ZM22.013,59.026V54.013h5.013l0,5.013Z" transform="translate(23.104 71.314)"/>
    <path id="Path_50" data-name="Path 50" class="cls-1" d="M51.026,49H46.013A5.018,5.018,0,0,0,41,54.013v5.013a5.018,5.018,0,0,0,5.013,5.013h5.013a5.018,5.018,0,0,0,5.013-5.013V54.013A5.018,5.018,0,0,0,51.026,49ZM46.013,59.026V54.013h5.013l0,5.013Z" transform="translate(59.261 71.314)"/>
    <ellipse id="Ellipse_4" data-name="Ellipse 4" class="cls-1" cx="2" cy="2.5" rx="2" ry="2.5" transform="translate(76 10)"/>
    <path id="Path_51" data-name="Path 51" class="cls-1" d="M148.886,36.092H126.327V13.533A12.547,12.547,0,0,0,113.794,1H43.611A12.547,12.547,0,0,0,31.078,13.533v8.848A22.485,22.485,0,0,0,1.566,38.493,25.118,25.118,0,0,0,7.782,60.711a12.11,12.11,0,0,1,3.243,8.322v62.716l6.855,20.569a5.986,5.986,0,0,0,11.355,0l3.883-11.653a12.517,12.517,0,0,0,10.492,5.717h70.183a12.547,12.547,0,0,0,12.533-12.533V91.236h22.559a7.529,7.529,0,0,0,7.52-7.52v-40.1A7.529,7.529,0,0,0,148.886,36.092ZM121.314,13.533V36.092H116.3V26.066a5.018,5.018,0,0,0-5.013-5.013H88.664a12.4,12.4,0,0,0,2.572-7.52V6.013h22.559A7.529,7.529,0,0,1,121.314,13.533Zm-22.559,77.7h12.533v20.052H46.117V26.066h65.17V36.092H98.755a7.529,7.529,0,0,0-7.52,7.52v40.1A7.529,7.529,0,0,0,98.755,91.236Zm-27.572-77.7V6.013H86.222v7.52a7.52,7.52,0,1,1-15.039,0Zm-35.092,0a7.529,7.529,0,0,1,7.52-7.52H66.17v7.52a12.4,12.4,0,0,0,2.572,7.52H46.117A5.018,5.018,0,0,0,41.1,26.066v3.419a22.466,22.466,0,0,0-2.5-2.677,22.3,22.3,0,0,0-2.517-1.918ZM6.459,39.581a17.573,17.573,0,0,1,15.1-13.405,17.376,17.376,0,0,1,13.7,4.364A17.576,17.576,0,0,1,41.1,43.611a20.491,20.491,0,0,1-5.286,13.4,18.436,18.436,0,0,0-4.489,9.159H26.065V50.67a7.52,7.52,0,1,0-5.013,0v15.5H15.793a17,17,0,0,0-4.349-8.886A20.025,20.025,0,0,1,6.459,39.581Zm9.58,31.6H31.078V76.2H16.039Zm5.013-27.572a2.507,2.507,0,1,1,2.507,2.507A2.509,2.509,0,0,1,21.052,43.611Zm-5.013,37.6h5.013v47.624H16.039Zm10.026,0h5.013v47.624H26.065Zm-1.584,69.519a1.011,1.011,0,0,1-1.842,0l-5.63-16.882h13.1Zm96.833-16.882a7.529,7.529,0,0,1-7.52,7.52H43.611a7.529,7.529,0,0,1-7.52-7.52V68.935a13.007,13.007,0,0,1,3.467-8.585c.549-.614,1.06-1.256,1.547-1.915v52.853a5.018,5.018,0,0,0,5.013,5.013h65.17a5.018,5.018,0,0,0,5.013-5.013V91.236h5.013Zm30.079-50.131a2.509,2.509,0,0,1-2.507,2.507H98.755a2.509,2.509,0,0,1-2.507-2.507v-40.1A2.509,2.509,0,0,1,98.755,41.1h50.131a2.509,2.509,0,0,1,2.507,2.507Z" transform="translate(-1 -1)"/>
    <path id="Path_52" data-name="Path 52" class="cls-1" d="M56.026,19A10.036,10.036,0,0,0,46,29.026h5.013a5.013,5.013,0,1,1,10.026,0v.99a5,5,0,0,1-2.233,4.171L53.52,37.711v6.354h5.013V40.393l3.055-2.038a10.005,10.005,0,0,0,4.464-8.339v-.99A10.036,10.036,0,0,0,56.026,19Z" transform="translate(66.794 26.118)"/>
    <ellipse id="Ellipse_5" data-name="Ellipse 5" class="cls-1" cx="2.5" cy="2" rx="2.5" ry="2" transform="translate(121 76)"/>
    <path id="Path_53" data-name="Path 53" class="cls-1" d="M49.452,40.169,32.5,31.692a6.564,6.564,0,0,0-9.5,5.87V54.516a6.564,6.564,0,0,0,9.5,5.87L49.452,51.91a6.564,6.564,0,0,0,0-11.741Zm-2.243,7.256L30.254,55.9a1.593,1.593,0,0,1-2.241-1.386V37.562a1.549,1.549,0,0,1,2.241-1.386l16.952,8.477a1.548,1.548,0,0,1,0,2.772Z" transform="translate(32.143 44.197)"/>
    <path id="Path_54" data-name="Path 54" class="cls-1" d="M26.013,48.092h5.013V43.079h5.013V38.066H31.026V13H26.013V38.066H21v5.013h5.013Z" transform="translate(29.13 17.079)"/>
    <path id="Path_55" data-name="Path 55" class="cls-1" d="M39.026,13H34.013V28.039H29v5.013h5.013V48.092h5.013V33.052h5.013V28.039H39.026Z" transform="translate(41.183 17.079)"/>
  </g>
</svg>
